<svg width="74" height="65" viewBox="0 0 74 65" fill="none" xmlns="http://www.w3.org/2000/svg">
<path d="M54.828 2.28369L72.2679 32.4905L54.828 62.6973L19.9482 62.6973L2.50832 32.4905L19.9482 2.28369L54.828 2.28369Z" stroke="black" stroke-width="3"/>
<path d="M36.1689 17.9743C34.4238 18.0704 32.4994 18.5914 30.9337 19.3947C29.6575 20.0496 28.5954 20.8209 27.5652 21.8367C25.1806 24.1944 23.7915 27.1166 23.4153 30.5715C23.3632 31.0431 23.3632 32.8942 23.4153 33.3658C23.7365 36.3288 24.7986 38.8785 26.6362 41.108C26.9748 41.5213 28.0311 42.5692 28.4449 42.9097C30.6675 44.7259 33.2489 45.7563 36.0676 45.9542C38.3191 46.1114 40.7326 45.6341 42.7642 44.6299C44.8478 43.5995 46.6971 41.9958 48.0051 40.0922C49.3595 38.1159 50.1495 35.9824 50.4418 33.5113C50.5142 32.8826 50.5142 31.0518 50.4418 30.426C50.083 27.399 48.9399 24.7823 47.0183 22.5819C46.6884 22.2006 45.8925 21.4176 45.5395 21.1207C43.3111 19.255 40.6748 18.1839 37.804 17.9831C37.4162 17.9569 36.5798 17.951 36.1689 17.9743ZM38.2583 18.7806C42.2491 19.2084 45.7942 21.5049 47.8952 25.0239C49.4116 27.562 50.0511 30.557 49.7126 33.5404C49.209 37.9907 46.5176 41.9026 42.6079 43.8731C42.0928 44.1322 41.5343 44.3738 41.158 44.5018C40.9352 44.5775 40.8571 44.5891 40.7182 44.5775C40.4838 44.5571 40.3043 44.4436 40.2088 44.2515L40.1336 44.106L40.1423 42.1413C40.151 40.8344 40.1423 40.0631 40.1191 39.8419C40.0468 39.0735 39.8384 38.5001 39.4622 38.0286C39.3754 37.918 39.3088 37.8248 39.3146 37.8219C39.3175 37.8161 39.4477 37.7957 39.5982 37.7783C40.2204 37.6968 40.941 37.5309 41.4474 37.3533C42.3417 37.039 42.961 36.6635 43.534 36.0872C43.916 35.7059 44.162 35.3595 44.4108 34.8647C44.8478 33.9944 45.0562 33.1009 45.1256 31.8319C45.2125 30.2339 44.8652 29.0231 43.9999 27.9287L43.8263 27.7104L43.8957 27.495C44.1678 26.6306 44.133 25.5129 43.8002 24.5174L43.6931 24.1973L43.4211 24.1885C42.7005 24.1652 41.6819 24.5669 40.4953 25.3411L40.1654 25.5565L39.714 25.4517C38.9297 25.2713 38.3538 25.1898 37.5001 25.1403C36.4496 25.0763 35.1328 25.2043 34.1113 25.4634C33.9232 25.51 33.7495 25.5507 33.7293 25.5507C33.709 25.5507 33.5991 25.4867 33.4833 25.411C32.7048 24.8842 31.8338 24.4563 31.1826 24.2817C30.9569 24.2205 30.8296 24.2031 30.5402 24.2002L30.1784 24.1973L30.1119 24.3865C30.0192 24.6426 29.8861 25.1636 29.8398 25.4488C29.8196 25.5827 29.8051 25.9174 29.8051 26.2347C29.8051 26.8168 29.8514 27.137 29.9874 27.5387L30.0453 27.7075L29.834 27.9782C29.2639 28.7117 28.9195 29.5295 28.7864 30.4697C28.7285 30.8626 28.7228 31.8202 28.772 32.3179C29.0961 35.5284 30.7341 37.2282 34.0013 37.7463C34.2068 37.7783 34.418 37.8132 34.4672 37.819L34.5627 37.8365L34.4036 38.0286C34.1287 38.3662 33.8971 38.893 33.8103 39.3966L33.7727 39.6061L33.6396 39.6614C33.1939 39.8536 32.7714 39.9409 32.291 39.9409C31.8627 39.9409 31.637 39.8943 31.2984 39.7371C30.8209 39.5188 30.4591 39.1696 30.0366 38.5234C29.643 37.9209 29.3015 37.5862 28.8414 37.3562C28.5318 37.1991 28.335 37.1525 28.008 37.1496C27.707 37.1496 27.5681 37.1932 27.4928 37.3126C27.4118 37.4406 27.6202 37.7026 28.0108 37.9675C28.4073 38.2352 28.7893 38.6747 29.0903 39.2074C29.1424 39.3005 29.2581 39.5567 29.3507 39.7808C29.6025 40.3862 29.7733 40.6482 30.1408 40.9916C30.9048 41.7047 31.9958 41.955 33.3415 41.7309C33.5383 41.6989 33.7061 41.6785 33.7148 41.6843C33.7206 41.6931 33.7351 42.2141 33.7438 42.8457C33.764 44.138 33.7582 44.1933 33.5585 44.3912C33.3386 44.6153 33.0579 44.627 32.5659 44.4436C30.2074 43.553 28.2395 42.0598 26.6854 39.9816C25.687 38.6485 24.9085 36.9924 24.4773 35.2868C24.1677 34.0701 24.0288 32.6701 24.0867 31.3953C24.1185 30.7345 24.1243 30.6589 24.2053 30.0622C24.7928 25.6875 27.5796 21.828 31.5096 19.9477C33.0029 19.2317 34.5541 18.8301 36.2268 18.7282C36.5943 18.7049 37.8647 18.7398 38.2583 18.7806Z" fill="black"/>
</svg>
