<svg width="74" height="65" viewBox="0 0 74 65" fill="none" xmlns="http://www.w3.org/2000/svg">
<path d="M54.4922 2.45166L71.9321 32.6585L54.4922 62.8653L19.6124 62.8653L2.17251 32.6585L19.6124 2.45166L54.4922 2.45166Z" stroke="black" stroke-width="3"/>
<path d="M26.5343 19.2382C26.3251 19.3529 26.0607 19.6282 25.9506 19.8462C25.7634 20.2133 25.7524 20.7754 25.7524 30.3316C25.7524 39.8878 25.7634 40.45 25.9506 40.8171C26.0607 41.035 26.3251 41.3104 26.5343 41.4251C26.8867 41.6201 27.4264 41.6316 36.6003 41.6316C45.7743 41.6316 46.3139 41.6201 46.6664 41.4251C46.8756 41.3104 47.1399 41.035 47.2501 40.8171C47.4373 40.45 47.4483 39.8878 47.4483 30.3316C47.4483 20.7754 47.4373 20.2133 47.2501 19.8462C47.1399 19.6282 46.8756 19.3529 46.6664 19.2382C46.3139 19.0431 45.7743 19.0317 36.6003 19.0317C27.4264 19.0317 26.8867 19.0431 26.5343 19.2382ZM31.7766 23.1157C32.3272 23.5517 32.5255 23.9302 32.5255 24.5956C32.5255 25.5707 31.9087 26.2476 30.9396 26.3508C30.2127 26.4197 29.9154 26.3279 29.4418 25.9034C28.5167 25.0545 28.748 23.5058 29.8823 22.9781C30.3559 22.7486 31.4021 22.8289 31.7766 23.1157ZM41.9527 27.8307C43.0541 28.347 43.825 29.5401 44.0342 31.0544C44.0893 31.4788 44.1444 33.1996 44.1444 34.886V37.9605H42.5034H40.8624L40.8184 34.7713C40.7853 31.7427 40.7743 31.5706 40.532 31.1117C40.2457 30.5381 39.8162 30.2743 39.1664 30.2743C38.5056 30.2743 37.977 30.5955 37.6796 31.192C37.4373 31.6739 37.4263 31.7771 37.4263 34.8287V37.9605H35.7744H34.1224V32.8555V27.7504H35.7744H37.4263V28.4043V29.0697L37.7017 28.7026C38.01 28.3011 38.5717 27.911 39.1774 27.6701C39.7611 27.4407 41.314 27.5325 41.9527 27.8307ZM32.3603 32.8555V37.9605H30.7083H29.0563V32.8555V27.7504H30.7083H32.3603V32.8555Z" fill="black"/>
</svg>
