<svg width="74" height="65" viewBox="0 0 74 65" fill="none" xmlns="http://www.w3.org/2000/svg">
<path d="M54.0604 2.28369L71.5003 32.4905L54.0604 62.6973L19.1806 62.6973L1.74071 32.4905L19.1806 2.28369L54.0604 2.28369Z" stroke="black" stroke-width="3"/>
<path d="M32.537 20.7401C31.4441 20.8103 30.7452 20.9587 29.957 21.2788C28.5146 21.8565 27.3621 23.0666 26.8119 24.5811C26.4922 25.4399 26.3658 26.1425 26.2915 27.5244C26.2022 29.1014 26.2022 35.1128 26.2915 36.6196C26.4253 38.9382 26.8417 40.164 27.9049 41.3428C28.76 42.3031 29.7637 42.8886 31.0277 43.1774C31.972 43.396 34.1951 43.4663 38.1878 43.4273C42.2697 43.3804 42.7381 43.3414 43.8534 42.9589C44.768 42.6544 45.3628 42.2562 46.1062 41.4677C46.6416 40.9056 46.8424 40.6168 47.0951 40.0936C47.5487 39.1491 47.7718 38.1263 47.8536 36.6586C47.9428 35.0972 47.9428 29.0936 47.8536 27.5244C47.7197 25.0652 47.2811 23.8629 46.0765 22.5981C44.872 21.3334 43.727 20.8728 41.3849 20.7323C40.0168 20.6464 33.8679 20.6542 32.537 20.7401ZM42.0541 22.848C43.6452 23.0353 44.8051 23.7848 45.3628 24.9871C45.7866 25.8849 45.8535 26.4158 45.9278 29.3122C45.965 30.9438 45.965 33.0673 45.9278 34.7381C45.8684 37.1192 45.8387 37.5564 45.7048 38.1029C45.2141 40.0547 44.069 41.0305 42.0095 41.2569C39.9946 41.4755 32.4478 41.3975 31.392 41.1476C29.5704 40.7182 28.5592 39.4379 28.2915 37.2442C28.1726 36.2526 28.1726 27.8991 28.2915 26.8764C28.5666 24.5655 29.5704 23.3554 31.6002 22.9026C32.485 22.7074 40.5001 22.6606 42.0541 22.848Z" fill="black"/>
<path d="M42.1956 24.8151C41.4595 25.3382 41.348 26.3064 41.9427 26.9389C42.5451 27.5713 43.467 27.4464 43.9726 26.6656C44.1213 26.4313 44.1436 26.322 44.1213 25.9082C44.0915 25.3617 43.9502 25.104 43.5414 24.8073C43.1993 24.5652 42.5451 24.5652 42.1956 24.8151Z" fill="black"/>
<path d="M35.92 26.3297C32.5147 27.0948 30.589 30.9516 31.9347 34.3165C32.9459 36.8538 35.6077 38.3371 38.1729 37.7829C42.0317 36.9553 43.8831 32.3179 41.7343 28.8749C40.4629 26.8372 38.158 25.8223 35.92 26.3297ZM38.2174 28.4767C40.8272 29.3823 41.5187 32.9658 39.4666 34.8707C38.7677 35.5187 37.9795 35.8233 37.0204 35.8076C35.0278 35.792 33.4887 34.1603 33.4887 32.0524C33.4812 29.4682 35.8679 27.6569 38.2174 28.4767Z" fill="black"/>
</svg>
