<svg width="74" height="64" viewBox="0 0 74 64" fill="none" xmlns="http://www.w3.org/2000/svg">
<path d="M33.7076 19.2135C30.1924 20.0052 27.1883 22.5546 25.8565 25.8639C25.1752 27.5582 25.0358 28.3024 25.0358 30.3767C25.0358 32.4827 25.2216 33.3852 25.9959 35.1745L26.3985 36.093L25.6552 38.864C25.2526 40.3841 24.9584 41.6666 25.0048 41.7141C25.0513 41.7617 26.3521 41.4766 27.8851 41.0649L30.6725 40.3207L31.8029 40.7957C33.3205 41.4291 34.2961 41.6191 36.0924 41.6191C39.174 41.6191 41.6672 40.5583 43.8506 38.3097C46.096 35.998 47.1025 33.5278 47.1025 30.2975C47.1025 28.1599 46.8703 27.1307 45.9101 25.1514C45.3062 23.8847 44.981 23.4255 43.8351 22.2695C42.7046 21.1295 42.2246 20.7653 41.0322 20.1794C40.2425 19.7836 39.0811 19.356 38.4617 19.2135C37.0989 18.9285 34.9774 18.9285 33.7076 19.2135ZM38.1984 21.1136C41.4658 21.9687 44.1758 24.6764 45.012 27.9382C45.3217 29.1417 45.3062 31.4218 44.9965 32.6569C44.3462 35.2537 42.4724 37.5972 40.1341 38.7372C38.5855 39.4815 37.6099 39.719 35.984 39.719C34.5903 39.719 33.3515 39.4181 31.9113 38.7531L30.8893 38.2622L29.3098 38.7056C28.4426 38.9431 27.6993 39.1015 27.6528 39.0539C27.6064 39.0065 27.7457 38.3256 27.978 37.5338C28.1948 36.7421 28.3652 35.998 28.3652 35.8712C28.3652 35.7604 28.1174 35.1429 27.8077 34.5095C25.5468 29.8067 27.4051 24.1538 32.0042 21.842C33.847 20.9078 36.3092 20.6228 38.1984 21.1136Z" fill="black"/>
<path d="M31.834 25.1519C31.3384 25.3577 30.719 26.1969 30.5177 26.9411C30.0996 28.5086 30.9977 30.4086 33.2276 32.6728C35.6124 35.0954 38.4462 36.267 40.1496 35.5387C40.9858 35.1745 41.5588 34.462 41.6362 33.6703L41.7136 32.9895L40.3044 32.277L38.8952 31.5803L38.4307 32.1186C38.1829 32.4194 37.9816 32.7203 37.9661 32.7837C37.9661 32.8469 37.8268 32.9737 37.6564 33.0686C36.9596 33.4486 34.0019 31.2161 33.4909 29.9178C33.3051 29.4744 33.336 29.3953 33.7851 28.7461L34.2651 28.0494L33.7851 26.7986C33.1502 25.1361 32.7166 24.7877 31.834 25.1519Z" fill="black"/>
<path d="M54.0518 1.5L71.4917 31.7068L54.0518 61.9136L19.1719 61.9136L1.73204 31.7068L19.1719 1.5L54.0518 1.5Z" stroke="black" stroke-width="3"/>
</svg>
